#!OML:ASF E:\emotionWalksFemale\Project 1\Capture day 1\Session 1\Female1.ASF
:FULLY-SPECIFIED
:DEGREES
344
root 8.63333 14.963 8.23922 41.2815 -85.9841 -33.9717
lowerback 17.1245 -0.528577 -0.368325
upperback -3.99045 -0.791326 0.0265604
thorax -14.168 -0.33112 0.468623
lowerneck -11.9957 -2.42861 -5.45704
upperneck -1.48586 -2.7076 3.94009
head 1.748 -1.28508 2.08619
rclavicle 5.76476e-015 5.1684e-015
rhumerus -37.2503 22.0181 -84.7976
rradius 68.3479
rwrist 11.8542
rhand -7.77878 -44.9386
rfingers 7.12502
rthumb 18.1217 -74.1144
lclavicle 5.76476e-015 5.1684e-015
lhumerus -47.3389 -13.5605 68.1621
lradius 39.6547
lwrist -12.6543
lhand -1.60165 -35.4774
lfingers 7.12502
lthumb 24.0554 -6.96502
rfemur -22.8356 5.06846 29.4983
rtibia 42.7542
rfoot -24.3922 -18.0508
rtoes -1.68184
lfemur -29.7245 -3.32533 -20.4843
ltibia 50.1248
lfoot -28.9445 9.25135
ltoes -36.5502
345
root 8.59708 15.058 8.22301 38.3913 -86.0996 -31.414
lowerback 16.5208 -0.453899 -0.620804
upperback -4.09419 -0.741435 0.0559338
thorax -13.9203 -0.287173 0.624356
lowerneck -11.8217 -2.48572 -5.61151
upperneck -0.797965 -2.76597 4.01013
head 1.95487 -1.30873 2.138
rclavicle 3.8763e-015 8.34896e-015
rhumerus -37.9606 22.5472 -85.2672
rradius 67.3394
rwrist 11.7968
rhand -8.54513 -45.1393
rfingers 7.12502
rthumb 17.3843 -74.3819
lclavicle 3.8763e-015 8.34896e-015
lhumerus -48.332 -14.5604 68.4003
lradius 39.6319
lwrist -12.087
lhand -0.0765026 -34.86
lfingers 7.12502
lthumb 25.5171 -6.54873
rfemur -21.032 5.18589 29.2746
rtibia 40.3676
rfoot -23.7995 -18.187
rtoes -3.25578
lfemur -28.129 -3.61224 -20.598
ltibia 48.1412
lfoot -28.401 8.81733
ltoes -34.4462
346
root 8.55752 15.1489 8.20786 33.3281 -86.3141 -26.7721
lowerback 15.9699 -0.388321 -0.924901
upperback -4.1638 -0.732181 -0.0689239
thorax -13.6657 -0.266876 0.649126
lowerneck -11.6008 -2.53873 -5.53048
upperneck -0.126831 -2.85317 4.00839
head 2.14266 -1.34983 2.12117
rclavicle -6.90777e-015 2.78299e-015
rhumerus -38.5712 22.7073 -85.7688
rradius 66.2002
rwrist 12.434
rhand -8.17755 -45.4862
rfingers 7.12502
rthumb 17.738 -74.6972
lclavicle -6.90777e-015 2.78299e-015
lhumerus -49.3504 -15.493 68.5321
lradius 39.6779
lwrist -11.5614
lhand -0.150694 -33.6991
lfingers 7.12502
lthumb 25.446 -5.3777
rfemur -19.1015 5.22659 28.8783
rtibia 37.9409
rfoot -23.1326 -18.3117
rtoes -5.51672
lfemur -26.3971 -3.86924 -20.9258
ltibia 46.1778
lfoot -27.854 8.4917
ltoes -32.245
347
root 8.5144 15.2316 8.19952 28.9759 -86.4071 -23.0065
lowerback 15.546 -0.286449 -0.952174
upperback -4.18313 -0.613269 -0.195657
thorax -13.4343 -0.218682 0.487279
lowerneck -11.4404 -2.6614 -5.53279
upperneck 0.59775 -3.02187 4.02077
head 2.36693 -1.43139 2.11971
rclavicle -1.46604e-015 5.96354e-015
rhumerus -39.2356 22.5505 -86.1411
rradius 64.9186
rwrist 13.2974
rhand -7.61622 -45.5691
rfingers 7.12502
rthumb 18.2781 -74.7304
lclavicle -1.46604e-015 5.96354e-015
lhumerus -50.3145 -16.683 68.9361
lradius 39.6882
lwrist -10.5445
lhand -0.661601 -32.7756
lfingers 7.12502
lthumb 24.9565 -4.38527
rfemur -16.9714 5.1007 28.5695
rtibia 35.4858
rfoot -22.4305 -18.3313
rtoes -8.10278
lfemur -24.532 -4.24214 -21.1799
ltibia 44.2998
lfoot -27.2923 8.37431
ltoes -30.3198
348
root 8.47895 15.3094 8.19196 28.6863 -86.3001 -23.1133
lowerback 15.0787 -0.207454 -0.683193
upperback -4.29868 -0.448854 -0.195688
thorax -13.2892 -0.165774 0.288405
lowerneck -11.3392 -2.78799 -5.61772
upperneck 1.41555 -3.18294 3.99662
head 2.63611 -1.51125 2.12168
rclavicle 1.14301e-015 -6.36111e-015
rhumerus -40.0544 22.6838 -86.5187
rradius 63.662
rwrist 13.8145
rhand -7.71471 -45.4108
rfingers 7.12502
rthumb 18.1833 -74.5809
lclavicle 1.14301e-015 -6.36111e-015
lhumerus -51.3833 -17.8634 69.5767
lradius 39.7578
lwrist -9.25283
lhand 0.155633 -32.7089
lfingers 7.12502
lthumb 25.7394 -4.42967
rfemur -15.0661 5.08455 28.5439
rtibia 32.9915
rfoot -21.7976 -18.1656
rtoes -9.595
lfemur -23.0438 -4.68751 -21.0684
ltibia 42.5615
lfoot -26.5573 8.22812
ltoes -28.343
349
root 8.44473 15.3811 8.18058 28.4633 -86.2464 -23.1745
lowerback 14.5011 -0.112534 -0.554745
upperback -4.44827 -0.294193 -0.199193
thorax -13.114 -0.106009 0.169605
lowerneck -11.1402 -2.92463 -5.67211
upperneck 2.1797 -3.36982 3.99632
head 2.87193 -1.60488 2.12429
rclavicle 1.2424e-016 -5.1684e-015
rhumerus -40.9226 23.0597 -87.0217
rradius 62.3914
rwrist 13.7492
rhand -8.42723 -45.0347
rfingers 7.12502
rthumb 17.4977 -74.2672
lclavicle 1.2424e-016 -5.1684e-015
lhumerus -52.5607 -18.9322 70.2091
lradius 40.0933
lwrist -8.16533
lhand 1.77379 -32.1981
lfingers 7.12502
lthumb 27.2882 -4.1527
rfemur -13.2657 5.28933 28.5296
rtibia 30.4735
rfoot -20.9013 -18.277
rtoes -12.0952
lfemur -21.736 -5.14011 -20.9738
ltibia 40.9512
lfoot -25.5608 8.68249
ltoes -29.2632
